ffmpeg started on 2025-06-07 at 17:37:41
Report written to "D:\Convert\FFMetrics\reports\ssim_report-6.txt"
Log level: 32
Command line:
ffmpeg -hide_banner -nostdin -i "G:\\\xc0\xed\xe8\xec\xe5\\\xce\xed\xe3\xee\xe8\xed\xe3\xe8\\!_36_\xce\xf1\xe5\xed\xfc_2024\\DreamCast\\\xdd\xe9, \xd2\xee\xec\xe1\xee!\\\xd2\xc2-2\\[DC] Tonbo 2 - 03_Telegram_HEVC.mkv" -i "G:\\\xc0\xed\xe8\xec\xe5\\\xce\xed\xe3\xee\xe8\xed\xe3\xe8\\!_36_\xce\xf1\xe5\xed\xfc_2024\\DreamCast\\\xdd\xe9, \xd2\xee\xec\xe1\xee!\\\xd2\xc2-2\\[DC] Tonbo 2 - 03_Telegram.mp4" -lavfi "[0:v]settb=AVTB,setpts=PTS-STARTPTS,format=pix_fmts=yuv420p10,fps=24000/1001,scale=1920:1080:flags=bicubic[main];[1:v]settb=AVTB,setpts=PTS-STARTPTS,format=pix_fmts=yuv420p,fps=24000/1001,scale=1920:1080:flags=bicubic[ref];[main][ref]ssim=eof_action=endall:stats_file='D\\:/Convert/FFMetrics/logs/ssim_logfile-6.txt'" -f null -
Input #0, matroska,webm, from 'G:\Аниме\Онгоинги\!_36_Осень_2024\DreamCast\Эй, Томбо!\ТВ-2\[DC] Tonbo 2 - 03_Telegram_HEVC.mkv':
  Metadata:
    COMPATIBLE_BRANDS: isomiso2avc1mp41
    MAJOR_BRAND     : isom
    MINOR_VERSION   : 512
    ENCODER         : Lavf61.7.100
  Duration: 00:24:20.69, start: -0.021000, bitrate: 1592 kb/s
  Stream #0:0: Video: hevc (Main 10), yuv420p10le(tv, bt709, progressive), 1920x1080 [SAR 1:1 DAR 16:9], 23.98 fps, 23.98 tbr, 1k tbn (default)
      Metadata:
        HANDLER_NAME    : VideoHandler
        VENDOR_ID       : [0][0][0][0]
        ENCODER         : Lavc61.19.100 libx265
        BPS             : 1396867
        DURATION        : 00:24:19.582708333
        NUMBER_OF_FRAMES: 34995
        NUMBER_OF_BYTES : 254855270
        _STATISTICS_WRITING_APP: mkvpropedit v66.0.0 ('Josie') 64-bit
        _STATISTICS_WRITING_DATE_UTC: 2025-06-06 07:02:59
        _STATISTICS_TAGS: BPS DURATION NUMBER_OF_FRAMES NUMBER_OF_BYTES
  Stream #0:1: Audio: aac (LC), 48000 Hz, stereo, fltp (default)
      Metadata:
        HANDLER_NAME    : SoundHandler
        VENDOR_ID       : [0][0][0][0]
        ENCODER         : Lavc61.19.100 aac
        BPS             : 193101
        DURATION        : 00:24:20.693000000
        NUMBER_OF_FRAMES: 68471
        NUMBER_OF_BYTES : 35257819
        _STATISTICS_WRITING_APP: mkvpropedit v66.0.0 ('Josie') 64-bit
        _STATISTICS_WRITING_DATE_UTC: 2025-06-06 07:02:59
        _STATISTICS_TAGS: BPS DURATION NUMBER_OF_FRAMES NUMBER_OF_BYTES
Input #1, mov,mp4,m4a,3gp,3g2,mj2, from 'G:\Аниме\Онгоинги\!_36_Осень_2024\DreamCast\Эй, Томбо!\ТВ-2\[DC] Tonbo 2 - 03_Telegram.mp4':
  Metadata:
    major_brand     : isom
    minor_version   : 512
    compatible_brands: isomiso2avc1mp41
    encoder         : Lavf61.1.100
  Duration: 00:24:20.65, start: 0.000000, bitrate: 3850 kb/s
  Stream #1:0[0x1](und): Video: h264 (High) (avc1 / 0x31637661), yuv420p(tv, bt709, progressive), 1920x1080 [SAR 1:1 DAR 16:9], 3705 kb/s, 23.98 fps, 23.98 tbr, 24k tbn (default)
      Metadata:
        handler_name    : VideoHandler
        vendor_id       : [0][0][0][0]
        encoder         : Lavc61.3.100 h264_qsv
  Stream #1:1[0x2](und): Audio: aac (HE-AACv2) (mp4a / 0x6134706D), 48000 Hz, stereo, fltp, 144 kb/s (default)
      Metadata:
        handler_name    : SoundHandler
        vendor_id       : [0][0][0][0]
Stream mapping:
  Stream #0:0 (hevc) -> settb:default
  Stream #1:0 (h264) -> settb:default
  ssim:default -> Stream #0:0 (wrapped_avframe)
  Stream #0:1 -> #0:1 (aac (native) -> pcm_s16le (native))
Output #0, null, to 'pipe:':
  Metadata:
    COMPATIBLE_BRANDS: isomiso2avc1mp41
    MAJOR_BRAND     : isom
    MINOR_VERSION   : 512
    encoder         : Lavf61.7.100
  Stream #0:0: Video: wrapped_avframe, yuv420p10le(tv, bt709, progressive), 1920x1080 [SAR 1:1 DAR 16:9], q=2-31, 200 kb/s, 23.98 fps, 23.98 tbn
      Metadata:
        encoder         : Lavc61.19.100 wrapped_avframe
  Stream #0:1: Audio: pcm_s16le, 48000 Hz, stereo, s16, 1536 kb/s (default)
      Metadata:
        HANDLER_NAME    : SoundHandler
        VENDOR_ID       : [0][0][0][0]
        _STATISTICS_TAGS: BPS DURATION NUMBER_OF_FRAMES NUMBER_OF_BYTES
        BPS             : 193101
        DURATION        : 00:24:20.693000000
        NUMBER_OF_FRAMES: 68471
        NUMBER_OF_BYTES : 35257819
        _STATISTICS_WRITING_APP: mkvpropedit v66.0.0 ('Josie') 64-bit
        _STATISTICS_WRITING_DATE_UTC: 2025-06-06 07:02:59
        encoder         : Lavc61.19.100 pcm_s16le
frame=  176 fps=0.0 q=-0.0 size=N/A time=00:00:07.34 bitrate=N/A speed=14.2x    frame=  396 fps=380 q=-0.0 size=N/A time=00:00:16.51 bitrate=N/A speed=15.8x    frame=  634 fps=409 q=-0.0 size=N/A time=00:00:26.44 bitrate=N/A speed=  17x    frame=  868 fps=421 q=-0.0 size=N/A time=00:00:36.20 bitrate=N/A speed=17.6x    frame= 1059 fps=409 q=-0.0 size=N/A time=00:00:44.16 bitrate=N/A speed=17.1x    frame= 1257 fps=406 q=-0.0 size=N/A time=00:00:52.42 bitrate=N/A speed=16.9x    frame= 1442 fps=399 q=-0.0 size=N/A time=00:01:00.14 bitrate=N/A speed=16.6x    frame= 1665 fps=404 q=-0.0 size=N/A time=00:01:09.44 bitrate=N/A speed=16.8x    frame= 1903 fps=409 q=-0.0 size=N/A time=00:01:19.37 bitrate=N/A speed=17.1x    frame= 2129 fps=412 q=-0.0 size=N/A time=00:01:28.79 bitrate=N/A speed=17.2x    frame= 2359 fps=416 q=-0.0 size=N/A time=00:01:38.38 bitrate=N/A speed=17.3x    frame= 2530 fps=408 q=-0.0 size=N/A time=00:01:45.52 bitrate=N/A speed=  17x    frame= 2660 fps=397 q=-0.0 size=N/A time=00:01:50.94 bitrate=N/A speed=16.5x    frame= 2851 fps=394 q=-0.0 size=N/A time=00:01:58.91 bitrate=N/A speed=16.4x    frame= 3045 fps=393 q=-0.0 size=N/A time=00:02:07.00 bitrate=N/A speed=16.4x    frame= 3197 fps=387 q=-0.0 size=N/A time=00:02:13.34 bitrate=N/A speed=16.1x    frame= 3427 fps=391 q=-0.0 size=N/A time=00:02:22.93 bitrate=N/A speed=16.3x    frame= 3698 fps=398 q=-0.0 size=N/A time=00:02:34.23 bitrate=N/A speed=16.6x    frame= 3881 fps=396 q=-0.0 size=N/A time=00:02:41.87 bitrate=N/A speed=16.5x    frame= 4154 fps=403 q=-0.0 size=N/A time=00:02:53.25 bitrate=N/A speed=16.8x    frame= 4372 fps=404 q=-0.0 size=N/A time=00:03:02.34 bitrate=N/A speed=16.8x    frame= 4582 fps=404 q=-0.0 size=N/A time=00:03:11.10 bitrate=N/A speed=16.8x    frame= 4789 fps=404 q=-0.0 size=N/A time=00:03:19.74 bitrate=N/A speed=16.8x    frame= 5013 fps=405 q=-0.0 size=N/A time=00:03:29.08 bitrate=N/A speed=16.9x    frame= 5250 fps=407 q=-0.0 size=N/A time=00:03:38.96 bitrate=N/A speed=  17x    frame= 5463 fps=407 q=-0.0 size=N/A time=00:03:47.85 bitrate=N/A speed=  17x    frame= 5707 fps=410 q=-0.0 size=N/A time=00:03:58.02 bitrate=N/A speed=17.1x    frame= 5957 fps=413 q=-0.0 size=N/A time=00:04:08.45 bitrate=N/A speed=17.2x    frame= 6186 fps=413 q=-0.0 size=N/A time=00:04:18.00 bitrate=N/A speed=17.2x    frame= 6406 fps=414 q=-0.0 size=N/A time=00:04:27.18 bitrate=N/A speed=17.3x    frame= 6629 fps=414 q=-0.0 size=N/A time=00:04:36.48 bitrate=N/A speed=17.3x    frame= 6854 fps=415 q=-0.0 size=N/A time=00:04:45.86 bitrate=N/A speed=17.3x    frame= 7086 fps=416 q=-0.0 size=N/A time=00:04:55.54 bitrate=N/A speed=17.4x    frame= 7349 fps=419 q=-0.0 size=N/A time=00:05:06.51 bitrate=N/A speed=17.5x    frame= 7571 fps=419 q=-0.0 size=N/A time=00:05:15.77 bitrate=N/A speed=17.5x    frame= 7781 fps=419 q=-0.0 size=N/A time=00:05:24.53 bitrate=N/A speed=17.5x    frame= 7979 fps=418 q=-0.0 size=N/A time=00:05:32.79 bitrate=N/A speed=17.4x    frame= 8137 fps=415 q=-0.0 size=N/A time=00:05:39.38 bitrate=N/A speed=17.3x    frame= 8317 fps=414 q=-0.0 size=N/A time=00:05:46.88 bitrate=N/A speed=17.3x    frame= 8480 fps=411 q=-0.0 size=N/A time=00:05:53.68 bitrate=N/A speed=17.1x    frame= 8706 fps=412 q=-0.0 size=N/A time=00:06:03.11 bitrate=N/A speed=17.2x    frame= 8864 fps=409 q=-0.0 size=N/A time=00:06:09.70 bitrate=N/A speed=17.1x    frame= 9032 fps=407 q=-0.0 size=N/A time=00:06:16.70 bitrate=N/A speed=  17x    frame= 9291 fps=409 q=-0.0 size=N/A time=00:06:27.51 bitrate=N/A speed=17.1x    frame= 9558 fps=412 q=-0.0 size=N/A time=00:06:38.64 bitrate=N/A speed=17.2x    frame= 9810 fps=413 q=-0.0 size=N/A time=00:06:49.15 bitrate=N/A speed=17.2x    frame=10041 fps=414 q=-0.0 size=N/A time=00:06:58.79 bitrate=N/A speed=17.3x    frame=10297 fps=416 q=-0.0 size=N/A time=00:07:09.47 bitrate=N/A speed=17.3x    frame=10548 fps=417 q=-0.0 size=N/A time=00:07:19.93 bitrate=N/A speed=17.4x    frame=10792 fps=418 q=-0.0 size=N/A time=00:07:30.11 bitrate=N/A speed=17.4x    frame=10962 fps=417 q=-0.0 size=N/A time=00:07:37.20 bitrate=N/A speed=17.4x    frame=11157 fps=416 q=-0.0 size=N/A time=00:07:45.33 bitrate=N/A speed=17.3x    frame=11387 fps=416 q=-0.0 size=N/A time=00:07:54.93 bitrate=N/A speed=17.4x    frame=11670 fps=419 q=-0.0 size=N/A time=00:08:06.73 bitrate=N/A speed=17.5x    frame=11946 fps=421 q=-0.0 size=N/A time=00:08:18.24 bitrate=N/A speed=17.6x    frame=12155 fps=421 q=-0.0 size=N/A time=00:08:26.96 bitrate=N/A speed=17.5x    frame=12360 fps=420 q=-0.0 size=N/A time=00:08:35.51 bitrate=N/A speed=17.5x    frame=12610 fps=421 q=-0.0 size=N/A time=00:08:45.94 bitrate=N/A speed=17.6x    frame=12831 fps=421 q=-0.0 size=N/A time=00:08:55.15 bitrate=N/A speed=17.6x    frame=13085 fps=422 q=-0.0 size=N/A time=00:09:05.75 bitrate=N/A speed=17.6x    frame=13349 fps=424 q=-0.0 size=N/A time=00:09:16.76 bitrate=N/A speed=17.7x    frame=13566 fps=424 q=-0.0 size=N/A time=00:09:25.81 bitrate=N/A speed=17.7x    frame=13789 fps=424 q=-0.0 size=N/A time=00:09:35.11 bitrate=N/A speed=17.7x    frame=14041 fps=425 q=-0.0 size=N/A time=00:09:45.62 bitrate=N/A speed=17.7x    frame=14281 fps=426 q=-0.0 size=N/A time=00:09:55.63 bitrate=N/A speed=17.8x    frame=14552 fps=427 q=-0.0 size=N/A time=00:10:06.93 bitrate=N/A speed=17.8x    frame=14788 fps=428 q=-0.0 size=N/A time=00:10:16.78 bitrate=N/A speed=17.8x    frame=15031 fps=428 q=-0.0 size=N/A time=00:10:26.91 bitrate=N/A speed=17.9x    frame=15193 fps=427 q=-0.0 size=N/A time=00:10:33.67 bitrate=N/A speed=17.8x    frame=15398 fps=426 q=-0.0 size=N/A time=00:10:42.22 bitrate=N/A speed=17.8x    frame=15645 fps=427 q=-0.0 size=N/A time=00:10:52.52 bitrate=N/A speed=17.8x    frame=15932 fps=429 q=-0.0 size=N/A time=00:11:04.49 bitrate=N/A speed=17.9x    frame=16170 fps=429 q=-0.0 size=N/A time=00:11:14.42 bitrate=N/A speed=17.9x    frame=16368 fps=429 q=-0.0 size=N/A time=00:11:22.68 bitrate=N/A speed=17.9x    frame=16608 fps=429 q=-0.0 size=N/A time=00:11:32.69 bitrate=N/A speed=17.9x    frame=16802 fps=428 q=-0.0 size=N/A time=00:11:40.78 bitrate=N/A speed=17.9x    frame=17014 fps=428 q=-0.0 size=N/A time=00:11:49.62 bitrate=N/A speed=17.9x    frame=17218 fps=428 q=-0.0 size=N/A time=00:11:58.13 bitrate=N/A speed=17.8x    frame=17459 fps=428 q=-0.0 size=N/A time=00:12:08.18 bitrate=N/A speed=17.9x    frame=17697 fps=429 q=-0.0 size=N/A time=00:12:18.11 bitrate=N/A speed=17.9x    frame=17951 fps=429 q=-0.0 size=N/A time=00:12:28.70 bitrate=N/A speed=17.9x    frame=18233 fps=431 q=-0.0 size=N/A time=00:12:40.46 bitrate=N/A speed=  18x    frame=18512 fps=432 q=-0.0 size=N/A time=00:12:52.10 bitrate=N/A speed=  18x    frame=18742 fps=432 q=-0.0 size=N/A time=00:13:01.69 bitrate=N/A speed=  18x    frame=19016 fps=433 q=-0.0 size=N/A time=00:13:13.12 bitrate=N/A speed=18.1x    frame=19224 fps=433 q=-0.0 size=N/A time=00:13:21.80 bitrate=N/A speed=18.1x    frame=19485 fps=434 q=-0.0 size=N/A time=00:13:32.68 bitrate=N/A speed=18.1x    frame=19691 fps=434 q=-0.0 size=N/A time=00:13:41.27 bitrate=N/A speed=18.1x    frame=19960 fps=435 q=-0.0 size=N/A time=00:13:52.49 bitrate=N/A speed=18.1x    frame=20250 fps=436 q=-0.0 size=N/A time=00:14:04.59 bitrate=N/A speed=18.2x    frame=20442 fps=435 q=-0.0 size=N/A time=00:14:12.60 bitrate=N/A speed=18.2x    frame=20678 fps=436 q=-0.0 size=N/A time=00:14:22.44 bitrate=N/A speed=18.2x    frame=20808 fps=434 q=-0.0 size=N/A time=00:14:27.86 bitrate=N/A speed=18.1x    frame=21032 fps=434 q=-0.0 size=N/A time=00:14:37.20 bitrate=N/A speed=18.1x    frame=21234 fps=433 q=-0.0 size=N/A time=00:14:45.63 bitrate=N/A speed=18.1x    frame=21496 fps=434 q=-0.0 size=N/A time=00:14:56.56 bitrate=N/A speed=18.1x    frame=21705 fps=434 q=-0.0 size=N/A time=00:15:05.27 bitrate=N/A speed=18.1x    frame=21935 fps=434 q=-0.0 size=N/A time=00:15:14.87 bitrate=N/A speed=18.1x    frame=22112 fps=433 q=-0.0 size=N/A time=00:15:22.25 bitrate=N/A speed=  18x    frame=22355 fps=433 q=-0.0 size=N/A time=00:15:32.38 bitrate=N/A speed=18.1x    frame=22535 fps=432 q=-0.0 size=N/A time=00:15:39.89 bitrate=N/A speed=  18x    frame=22774 fps=433 q=-0.0 size=N/A time=00:15:49.86 bitrate=N/A speed=  18x    frame=23034 fps=433 q=-0.0 size=N/A time=00:16:00.70 bitrate=N/A speed=18.1x    frame=23297 fps=434 q=-0.0 size=N/A time=00:16:11.67 bitrate=N/A speed=18.1x    frame=23525 fps=434 q=-0.0 size=N/A time=00:16:21.18 bitrate=N/A speed=18.1x    frame=23763 fps=434 q=-0.0 size=N/A time=00:16:31.11 bitrate=N/A speed=18.1x    frame=23991 fps=434 q=-0.0 size=N/A time=00:16:40.62 bitrate=N/A speed=18.1x    frame=24175 fps=434 q=-0.0 size=N/A time=00:16:48.29 bitrate=N/A speed=18.1x    frame=24433 fps=434 q=-0.0 size=N/A time=00:16:59.05 bitrate=N/A speed=18.1x    frame=24619 fps=434 q=-0.0 size=N/A time=00:17:06.81 bitrate=N/A speed=18.1x    frame=24869 fps=434 q=-0.0 size=N/A time=00:17:17.24 bitrate=N/A speed=18.1x    frame=25129 fps=435 q=-0.0 size=N/A time=00:17:28.08 bitrate=N/A speed=18.1x    frame=25340 fps=435 q=-0.0 size=N/A time=00:17:36.88 bitrate=N/A speed=18.1x    frame=25599 fps=435 q=-0.0 size=N/A time=00:17:47.69 bitrate=N/A speed=18.1x    frame=25855 fps=436 q=-0.0 size=N/A time=00:17:58.36 bitrate=N/A speed=18.2x    frame=26077 fps=436 q=-0.0 size=N/A time=00:18:07.62 bitrate=N/A speed=18.2x    frame=26269 fps=435 q=-0.0 size=N/A time=00:18:15.63 bitrate=N/A speed=18.1x    frame=26484 fps=435 q=-0.0 size=N/A time=00:18:24.60 bitrate=N/A speed=18.1x    frame=26720 fps=435 q=-0.0 size=N/A time=00:18:34.44 bitrate=N/A speed=18.1x    frame=26944 fps=435 q=-0.0 size=N/A time=00:18:43.78 bitrate=N/A speed=18.1x    frame=27189 fps=435 q=-0.0 size=N/A time=00:18:54.00 bitrate=N/A speed=18.2x    frame=27412 fps=435 q=-0.0 size=N/A time=00:19:03.30 bitrate=N/A speed=18.2x    frame=27658 fps=436 q=-0.0 size=N/A time=00:19:13.56 bitrate=N/A speed=18.2x    frame=27937 fps=437 q=-0.0 size=N/A time=00:19:25.20 bitrate=N/A speed=18.2x    frame=28149 fps=436 q=-0.0 size=N/A time=00:19:34.04 bitrate=N/A speed=18.2x    frame=28387 fps=436 q=-0.0 size=N/A time=00:19:43.97 bitrate=N/A speed=18.2x    frame=28636 fps=437 q=-0.0 size=N/A time=00:19:54.35 bitrate=N/A speed=18.2x    frame=28893 fps=437 q=-0.0 size=N/A time=00:20:05.07 bitrate=N/A speed=18.2x    frame=29137 fps=438 q=-0.0 size=N/A time=00:20:15.25 bitrate=N/A speed=18.3x    frame=29363 fps=438 q=-0.0 size=N/A time=00:20:24.68 bitrate=N/A speed=18.3x    frame=29608 fps=438 q=-0.0 size=N/A time=00:20:34.90 bitrate=N/A speed=18.3x    frame=29821 fps=438 q=-0.0 size=N/A time=00:20:43.78 bitrate=N/A speed=18.3x    frame=30087 fps=438 q=-0.0 size=N/A time=00:20:54.87 bitrate=N/A speed=18.3x    frame=30359 fps=439 q=-0.0 size=N/A time=00:21:06.22 bitrate=N/A speed=18.3x    frame=30652 fps=440 q=-0.0 size=N/A time=00:21:18.44 bitrate=N/A speed=18.3x    frame=30893 fps=440 q=-0.0 size=N/A time=00:21:28.49 bitrate=N/A speed=18.4x    frame=31135 fps=440 q=-0.0 size=N/A time=00:21:38.58 bitrate=N/A speed=18.4x    frame=31375 fps=440 q=-0.0 size=N/A time=00:21:48.59 bitrate=N/A speed=18.4x    frame=31624 fps=441 q=-0.0 size=N/A time=00:21:58.98 bitrate=N/A speed=18.4x    frame=31900 fps=441 q=-0.0 size=N/A time=00:22:10.49 bitrate=N/A speed=18.4x    frame=32171 fps=442 q=-0.0 size=N/A time=00:22:21.79 bitrate=N/A speed=18.4x    frame=32410 fps=442 q=-0.0 size=N/A time=00:22:31.76 bitrate=N/A speed=18.4x    frame=32650 fps=442 q=-0.0 size=N/A time=00:22:41.77 bitrate=N/A speed=18.5x    frame=32885 fps=443 q=-0.0 size=N/A time=00:22:51.57 bitrate=N/A speed=18.5x    frame=33107 fps=442 q=-0.0 size=N/A time=00:23:00.83 bitrate=N/A speed=18.5x    frame=33325 fps=442 q=-0.0 size=N/A time=00:23:09.93 bitrate=N/A speed=18.4x    frame=33544 fps=442 q=-0.0 size=N/A time=00:23:19.06 bitrate=N/A speed=18.4x    frame=33736 fps=442 q=-0.0 size=N/A time=00:23:27.07 bitrate=N/A speed=18.4x    frame=33984 fps=442 q=-0.0 size=N/A time=00:23:37.41 bitrate=N/A speed=18.4x    frame=34224 fps=442 q=-0.0 size=N/A time=00:23:47.42 bitrate=N/A speed=18.4x    frame=34440 fps=442 q=-0.0 size=N/A time=00:23:56.43 bitrate=N/A speed=18.4x    frame=34699 fps=442 q=-0.0 size=N/A time=00:24:07.23 bitrate=N/A speed=18.4x    frame=34908 fps=442 q=-0.0 size=N/A time=00:24:15.95 bitrate=N/A speed=18.4x    [Parsed_ssim_10 @ 0000013ac15c7b40] SSIM Y:0.992585 (21.298613) U:0.992059 (21.001286) V:0.993158 (21.648034) All:0.992592 (21.303281)
[out#0/null @ 0000013abf374200] video:15037KiB audio:273884KiB subtitle:0KiB other streams:0KiB global headers:0KiB muxing overhead: unknown
frame=34995 fps=442 q=-0.0 Lsize=N/A time=00:24:19.58 bitrate=N/A speed=18.4x    
